<svg width="25" height="25" viewBox="0 0 25 25" fill="none" xmlns="http://www.w3.org/2000/svg">
<rect width="25" height="25" fill="#F5F5F5"/>
<g id="Group">
<g id="Checkout - Add payment method" clip-path="url(#clip0_0_1)" filter="url(#filter0_d_0_1)">
<rect width="1440" height="1635" transform="translate(-836 -221)" fill="white"/>
<g id="Container 7" filter="url(#filter1_dd_0_1)">
<rect x="-704" y="-113" width="800" height="498" rx="4" fill="white"/>
<g id="Table 1">
<g clip-path="url(#clip1_0_1)">
<g id="Row">
<g id="Frame">
<rect x="-47.86" y="-57" width="119.88" height="139.33" fill="white"/>
<rect x="-47.86" y="-57" width="119.88" height="139.33" stroke="white"/>
<g id="create">
<path id="Vector" d="M8.65143 6.66514V3.23657L15.5086 3.23657V6.66514" stroke="#565E6C" stroke-width="2.05714" stroke-miterlimit="10" stroke-linecap="square"/>
<path id="Vector_2" d="M18.9372 12.665V20.3793C18.9372 20.834 18.7566 21.27 18.4351 21.5915C18.1136 21.913 17.6776 22.0936 17.2229 22.0936L6.93719 22.0936C6.48253 22.0936 6.04649 21.913 5.725 21.5915C5.40351 21.27 5.2229 20.834 5.2229 20.3793L5.2229 12.665" stroke="#565E6C" stroke-width="2.05714" stroke-miterlimit="10" stroke-linecap="square"/>
<path id="Vector_3" d="M12.08 14.3794V17.808" stroke="#565E6C" stroke-width="2.05714" stroke-miterlimit="10" stroke-linecap="square"/>
<path id="Vector_4" d="M8.65143 14.3794V17.808" stroke="#565E6C" stroke-width="2.05714" stroke-miterlimit="10" stroke-linecap="square"/>
<path id="Vector_5" d="M15.5086 14.3794V17.808" stroke="#565E6C" stroke-width="2.05714" stroke-miterlimit="10" stroke-linecap="square"/>
<path id="Vector_6" d="M21.5086 6.66504L2.65143 6.66504L2.65143 10.0936L21.5086 10.0936V6.66504Z" stroke="#565E6C" stroke-width="2.05714" stroke-miterlimit="10" stroke-linecap="square"/>
</g>
</g>
</g>
</g>
<rect x="-680" y="-57" width="752.02" height="417.99" stroke="white"/>
</g>
</g>
</g>
</g>
<defs>
<filter id="filter0_d_0_1" x="-842" y="-224" width="1452" height="1647" filterUnits="userSpaceOnUse" color-interpolation-filters="sRGB">
<feFlood flood-opacity="0" result="BackgroundImageFix"/>
<feColorMatrix in="SourceAlpha" type="matrix" values="0 0 0 0 0 0 0 0 0 0 0 0 0 0 0 0 0 0 127 0" result="hardAlpha"/>
<feOffset dy="3"/>
<feGaussianBlur stdDeviation="3"/>
<feColorMatrix type="matrix" values="0 0 0 0 0.0705882 0 0 0 0 0.0588235 0 0 0 0 0.156863 0 0 0 0.12 0"/>
<feBlend mode="normal" in2="BackgroundImageFix" result="effect1_dropShadow_0_1"/>
<feBlend mode="normal" in="SourceGraphic" in2="effect1_dropShadow_0_1" result="shape"/>
</filter>
<filter id="filter1_dd_0_1" x="-706" y="-115" width="804" height="502" filterUnits="userSpaceOnUse" color-interpolation-filters="sRGB">
<feFlood flood-opacity="0" result="BackgroundImageFix"/>
<feColorMatrix in="SourceAlpha" type="matrix" values="0 0 0 0 0 0 0 0 0 0 0 0 0 0 0 0 0 0 127 0" result="hardAlpha"/>
<feOffset/>
<feGaussianBlur stdDeviation="0.5"/>
<feColorMatrix type="matrix" values="0 0 0 0 0.0901961 0 0 0 0 0.101961 0 0 0 0 0.121569 0 0 0 0.07 0"/>
<feBlend mode="normal" in2="BackgroundImageFix" result="effect1_dropShadow_0_1"/>
<feColorMatrix in="SourceAlpha" type="matrix" values="0 0 0 0 0 0 0 0 0 0 0 0 0 0 0 0 0 0 127 0" result="hardAlpha"/>
<feOffset/>
<feGaussianBlur stdDeviation="1"/>
<feColorMatrix type="matrix" values="0 0 0 0 0.0901961 0 0 0 0 0.101961 0 0 0 0 0.121569 0 0 0 0.12 0"/>
<feBlend mode="normal" in2="effect1_dropShadow_0_1" result="effect2_dropShadow_0_1"/>
<feBlend mode="normal" in="SourceGraphic" in2="effect2_dropShadow_0_1" result="shape"/>
</filter>
<clipPath id="clip0_0_1">
<rect width="1440" height="1635" fill="white" transform="translate(-836 -221)"/>
</clipPath>
<clipPath id="clip1_0_1">
<rect x="-680" y="-57" width="752.02" height="417.99" fill="white"/>
</clipPath>
</defs>
</svg>
