<svg width="1440" height="170" viewBox="0 0 1440 170" fill="none" xmlns="http://www.w3.org/2000/svg">
<path d="M226.324 168.42C213.964 167.221 202.324 164.103 190.804 158.828C180.244 154.032 169.924 147.557 159.484 139.164C140.044 123.337 123.244 103.434 105.484 82.4516C77.4038 49.1194 48.3638 14.7081 7.80377 -2.19785C-3.47623 -6.87395 -18.4762 -10.4709 -34.3162 -14.3077C-55.1962 -19.3435 -78.9562 -24.9788 -98.3962 -34.4509C-120.716 -45.2419 -134.036 -59.3901 -139.196 -77.7348C-139.316 -78.2144 -139.196 -78.694 -138.836 -79.0537C-134.876 -82.7706 -96.8362 -71.3801 -25.9162 -45.4817C-22.6762 -44.2827 -20.5162 -43.4434 -19.7962 -43.2036C-2.15622 -37.2086 18.8438 -33.8514 39.1238 -30.4942C64.9238 -26.2977 91.5638 -21.9813 112.084 -12.3893C148.564 4.75636 164.164 38.4483 179.164 70.9412C187.564 89.166 196.324 107.99 208.564 122.978C215.164 131.131 222.244 137.606 230.164 142.761C239.044 148.516 248.884 152.713 260.164 155.231C315.124 167.82 396.004 136.886 467.284 109.669C502.444 96.2401 535.564 83.5307 562.684 77.1759C600.724 68.1835 641.044 56.3134 679.924 44.9229C750.844 23.9403 824.404 2.23846 893.644 -5.19534C915.364 -7.59335 936.964 -7.59335 959.524 -5.31525C959.884 -5.31525 960.244 -5.19534 960.484 -5.19534C980.884 -3.15704 1001.76 0.799652 1024.08 6.79465C1065.6 17.9454 1106.4 34.7313 1145.76 50.9178C1186.44 67.7038 1228.56 84.9695 1271.52 96.1201C1291.68 101.276 1310.64 104.873 1329.12 106.791C1337.28 106.791 1345.44 106.432 1353.48 105.712C1383.96 103.314 1414.8 100.197 1445.64 96.8396C1462.08 92.4033 1481.52 86.768 1503.24 80.2934C1571.52 60.2701 1656.6 35.3309 1729.92 25.3792C1769.76 19.9837 1802.28 19.6239 1826.4 24.42C1839.96 27.1777 1851.24 31.494 1860 37.4891C1869.24 43.8438 1875.96 52.1169 1879.8 62.1884V62.3083H1879.68C1835.4 70.4615 1788 70.4615 1742.16 70.4615C1704.72 70.4615 1665.84 70.4616 1628.76 74.8979C1606.8 77.5357 1584.24 80.2934 1562.52 83.0511C1524.12 87.8471 1484.88 92.763 1445.64 97.0794C1429.44 101.396 1416.24 104.633 1406.76 105.952C1383.84 109.189 1361.04 109.789 1337.28 107.87C1334.52 107.631 1331.76 107.391 1329 107.151C1316.04 107.151 1302.84 106.432 1289.28 104.993C1269.6 102.835 1249.44 99.1177 1227.72 93.4824C1187.4 83.171 1147.8 68.0636 1109.52 53.4358C1063.08 35.8105 1015.2 17.4658 966.964 8.35336C941.044 3.43746 917.044 1.51906 893.524 2.35836C867.244 3.31756 842.164 7.75385 816.964 15.9071C718.804 47.6805 621.964 76.4566 521.164 103.674C499.804 109.429 476.524 116.743 451.924 124.536C377.644 148.037 293.404 174.535 227.164 168.66C227.164 168.54 226.684 168.54 226.324 168.42ZM-133.676 -79.4134C-136.316 -79.6532 -137.996 -79.5333 -138.716 -78.9338C-138.956 -78.694 -139.076 -78.3343 -138.956 -77.8547C-133.796 -59.6299 -120.476 -45.4817 -98.2762 -34.6907C-78.8362 -25.2186 -55.1962 -19.5833 -34.3162 -14.5475C-18.4762 -10.7107 -3.47623 -7.11374 7.80377 -2.43764C48.3638 14.4683 77.5238 48.9995 105.604 82.3316C123.364 103.434 140.164 123.337 159.604 139.044C170.044 147.557 180.244 153.912 190.804 158.708C202.684 164.103 214.564 167.221 227.404 168.3C293.524 174.175 377.764 147.557 452.044 124.177C476.764 116.383 500.044 109.069 521.284 103.314C622.204 75.977 718.924 47.3209 817.084 15.5474C842.284 7.39416 867.364 2.95786 893.764 1.99866C917.284 1.15936 941.284 3.19765 967.204 7.99365C1015.44 17.1061 1063.44 35.4508 1109.76 53.076C1148.04 67.7039 1187.52 82.6914 1227.84 93.0028C1249.56 98.5182 1269.72 102.355 1289.4 104.513C1302.24 105.952 1314.6 106.671 1326.96 106.671C1309.08 104.633 1290.84 101.276 1271.52 96.2401C1228.56 85.0894 1186.44 67.8238 1145.64 51.0378C1106.4 34.8513 1065.72 18.0653 1024.08 6.91455C1001.76 0.919556 980.884 -3.03715 960.484 -5.07545C960.124 -5.07545 959.764 -5.19534 959.524 -5.19534C936.964 -7.47344 915.484 -7.35355 893.644 -5.07545C824.404 2.35835 750.844 24.0602 679.804 44.9229C640.924 56.4332 600.604 68.1835 562.564 77.1759C535.564 83.5307 502.324 96.2401 467.164 109.669C395.764 137.006 314.884 167.94 259.924 155.231C248.644 152.593 238.804 148.516 229.804 142.761C221.884 137.606 214.804 131.131 208.204 122.978C195.964 107.87 187.204 89.0461 178.804 70.8213C163.804 38.3284 148.204 4.75636 111.844 -12.3893C91.4438 -21.7415 64.8038 -26.1778 39.0038 -30.2544C18.8438 -33.6116 -2.15622 -36.9688 -19.7962 -42.9638C-20.5162 -43.2036 -22.6762 -44.0429 -25.9162 -45.2419C-37.5562 -49.4384 -64.5562 -59.2702 -89.0362 -67.3035C-111.356 -74.6174 -126.236 -78.694 -133.676 -79.4134ZM1331.52 106.911C1333.56 107.151 1335.6 107.271 1337.64 107.511C1361.4 109.429 1384.2 108.83 1407.12 105.592C1416.24 104.273 1428.96 101.276 1444.44 97.1993C1414.08 100.556 1383.84 103.554 1353.84 105.952C1346.4 106.432 1338.96 106.791 1331.52 106.911ZM1810.92 22.2618C1789.08 20.1036 1762.08 21.1827 1730.28 25.4991C1656.96 35.4508 1571.88 60.39 1503.6 80.4133C1482.48 86.6481 1463.52 92.1635 1447.44 96.4799C1486.08 92.1635 1524.84 87.3674 1562.76 82.5715C1584.48 79.8138 1607.04 77.0561 1629 74.4183C1666.08 69.982 1704.84 69.9819 1742.4 69.9819C1788.12 69.9819 1835.52 69.982 1879.8 61.8288C1875.96 51.8771 1869.36 43.7239 1860.24 37.3692C1851.6 31.4941 1840.32 27.0578 1826.76 24.42C1821.72 23.5807 1816.44 22.8613 1810.92 22.2618Z" fill="#FBECCE" fill-opacity="0.4"/>
</svg>
