<svg width="24" height="24" viewBox="0 0 24 24" fill="none" xmlns="http://www.w3.org/2000/svg">
<g id="Calendar date 1">
<path id="Vector" d="M7.71429 12H6V12.8571H7.71429V12Z" stroke="#0D554A" stroke-width="2.05714" stroke-miterlimit="10" stroke-linecap="square"/>
<path id="Vector_2" d="M12.8571 12H11.1428V12.8571H12.8571V12Z" stroke="#0D554A" stroke-width="2.05714" stroke-miterlimit="10" stroke-linecap="square"/>
<path id="Vector_3" d="M7.71429 16.2858H6V17.1429H7.71429V16.2858Z" stroke="#0D554A" stroke-width="2.05714" stroke-miterlimit="10" stroke-linecap="square"/>
<path id="Vector_4" d="M12.8571 16.2858H11.1428V17.1429H12.8571V16.2858Z" stroke="#0D554A" stroke-width="2.05714" stroke-miterlimit="10" stroke-linecap="square"/>
<path id="Vector_5" d="M17.9999 12H16.2856V12.8571H17.9999V12Z" stroke="#0D554A" stroke-width="2.05714" stroke-miterlimit="10" stroke-linecap="square"/>
<path id="Vector_6" d="M7.71429 12H6V12.8571H7.71429V12Z" fill="#0D554A"/>
<path id="Vector_7" d="M12.8571 12H11.1428V12.8571H12.8571V12Z" fill="#0D554A"/>
<path id="Vector_8" d="M7.71429 16.2858H6V17.1429H7.71429V16.2858Z" fill="#0D554A"/>
<path id="Vector_9" d="M12.8571 16.2858H11.1428V17.1429H12.8571V16.2858Z" fill="#0D554A"/>
<path id="Vector_10" d="M17.9999 12H16.2856V12.8571H17.9999V12Z" fill="#0D554A"/>
<path id="Vector_11" d="M21.4287 5.14282L2.57153 5.14282L2.57153 20.5714L21.4287 20.5714L21.4287 5.14282Z" stroke="#0D554A" stroke-width="2.05714" stroke-miterlimit="10" stroke-linecap="square"/>
<path id="Vector_12" d="M16.2856 5.14284V2.57141" stroke="#0D554A" stroke-width="2.05714" stroke-miterlimit="10" stroke-linecap="square"/>
<path id="Vector_13" d="M7.71436 5.14284L7.71436 2.57141" stroke="#0D554A" stroke-width="2.05714" stroke-miterlimit="10" stroke-linecap="square"/>
<path id="Vector_14" d="M2.57153 8.57141L21.4287 8.57141" stroke="#0D554A" stroke-width="2.05714" stroke-miterlimit="10"/>
</g>
</svg>
